<?xml version="1.0" standalone="no"?>
<!DOCTYPE svg PUBLIC "-//W3C//DTD SVG 20010904//EN"
 "http://www.w3.org/TR/2001/REC-SVG-20010904/DTD/svg10.dtd">
<svg version="1.0" xmlns="http://www.w3.org/2000/svg"
 width="300.000000pt" height="300.000000pt" viewBox="0 0 300.000000 300.000000"
 preserveAspectRatio="xMidYMid meet">

<g transform="translate(0.000000,300.000000) scale(0.100000,-0.100000)"
fill="#000000" stroke="none">
<path d="M905 2606 c-162 -41 -213 -57 -347 -113 l-106 -44 -50 -82 c-284
-467 -403 -873 -401 -1372 1 -259 -2 -249 99 -318 118 -81 316 -189 435 -237
93 -38 217 -80 235 -80 9 0 73 97 123 187 26 45 32 64 24 71 -7 5 -60 33 -119
62 -60 29 -108 56 -108 60 0 3 10 16 23 28 l22 21 95 -36 c384 -145 726 -169
1091 -78 95 24 228 67 301 99 34 15 37 14 62 -5 18 -14 24 -25 17 -33 -5 -6
-56 -33 -113 -61 -56 -27 -106 -54 -110 -59 -10 -14 134 -256 151 -256 28 0
180 56 326 120 65 28 270 147 360 208 l70 47 8 120 c34 515 -101 1040 -384
1493 l-62 99 -100 43 c-55 23 -125 51 -156 61 -64 23 -330 89 -355 89 -10 0
-31 -30 -56 -81 -37 -73 -44 -80 -65 -75 -104 26 -438 30 -585 7 -30 -5 -59
-7 -65 -5 -6 3 -28 38 -48 79 -30 61 -41 75 -59 74 -13 0 -81 -15 -153 -33z
m202 -943 c165 -78 214 -318 97 -476 -88 -120 -279 -133 -381 -26 -70 75 -101
181 -82 283 13 74 31 110 78 159 79 84 190 107 288 60z m996 1 c41 -21 104
-81 124 -118 62 -118 55 -237 -21 -351 -95 -143 -315 -144 -413 -2 -81 119
-82 265 -3 381 29 41 96 92 140 105 44 13 132 5 173 -15z"/>
</g>
</svg>
